<svg width="113" height="112" viewBox="0 0 113 112" fill="none" xmlns="http://www.w3.org/2000/svg">
<path d="M41.1 87.7335C31.3 87.7335 29.7444 85.4002 31.3 83.0669C32.8556 80.7335 35.9037 82.0076 35.0333 84.4669C34.1 87.1039 26.1667 88.2214 26.1667 83.0669C26.1667 80.2669 26.1667 74.2002 26.1667 74.2002" stroke="#959595" stroke-width="1.4" stroke-linecap="round" stroke-linejoin="round"/>
<rect x="50.9" y="39.2002" width="43.8667" height="16.8" rx="1.86667" fill="white" stroke="#959595" stroke-width="1.4" stroke-linejoin="round"/>
<rect x="50.9" y="56" width="43.8667" height="16.8" rx="1.86667" fill="white" stroke="#959595" stroke-width="1.4" stroke-linejoin="round"/>
<rect x="50.9" y="72.7998" width="43.8667" height="16.8" rx="1.86667" fill="white" stroke="#959595" stroke-width="1.4" stroke-linejoin="round"/>
<path d="M79.8333 64.3999H57.4333M85.9 64.3999H87.3" stroke="#959595" stroke-width="1.4" stroke-linecap="round" stroke-linejoin="round"/>
<path d="M79.8333 81.2002H58.8333M85.9 81.2002H87.3" stroke="#959595" stroke-width="1.4" stroke-linecap="round" stroke-linejoin="round"/>
<path d="M79.8333 47.6001H57.4333M85.9 47.6001H87.3" stroke="#959595" stroke-width="1.4" stroke-linecap="round" stroke-linejoin="round"/>
<path d="M71.4333 18.6665L74.2333 21.4665M74.2333 18.6665L71.4333 21.4665" stroke="#959595" stroke-width="1.4" stroke-linecap="round" stroke-linejoin="round"/>
<circle cx="88.98" cy="25.9466" r="1.68" stroke="#959595" stroke-width="1.12" stroke-linecap="round" stroke-linejoin="round"/>
<circle cx="34.2867" cy="16.0531" r="1.12" fill="#959595" stroke="#959595" stroke-width="0.933333" stroke-linecap="round" stroke-linejoin="round"/>
<path d="M19.1667 29.8667H22.9" stroke="#959595" stroke-width="1.4" stroke-linecap="round" stroke-linejoin="round"/>
<path d="M21.0333 31.7334L21.0333 28.0001" stroke="#959595" stroke-width="1.4" stroke-linecap="round" stroke-linejoin="round"/>
<rect x="45.3" y="77.4668" width="6.53333" height="12.1333" rx="1.86667" fill="white" stroke="#959595" stroke-width="1.4" stroke-linejoin="round"/>
<rect x="38.7667" y="85.8667" width="19.6" height="3.73333" rx="1.86667" fill="white" stroke="#959595" stroke-width="1.4" stroke-linejoin="round"/>
<rect x="23.8333" y="46.2002" width="48.5333" height="32.6667" rx="1.86667" fill="white" stroke="#959595" stroke-width="1.4" stroke-linejoin="round"/>
<path d="M44.6756 57.3032C44.3495 58.6077 42.621 60.8254 38.3161 59.26M51.5244 57.3032C52.1766 58.6077 54.3617 60.8254 57.8839 59.26M51.5244 69.5331C50.3829 68.5547 47.4151 67.185 44.6756 69.5331" stroke="#959595" stroke-width="1.4" stroke-linecap="round" stroke-linejoin="round"/>
<path d="M28.9667 45.7334V58.8001" stroke="#959595" stroke-width="1.4" stroke-linecap="round" stroke-linejoin="round"/>
<path d="M27.5667 63L27.5667 65.8" stroke="#959595" stroke-width="1.4" stroke-linecap="round" stroke-linejoin="round"/>
<path d="M30.3667 63L30.3667 65.8" stroke="#959595" stroke-width="1.4" stroke-linecap="round" stroke-linejoin="round"/>
<path d="M25.7 61.6002C25.7 59.796 27.1625 58.3335 28.9667 58.3335C30.7708 58.3335 32.2333 59.796 32.2333 61.6002V63.7095C32.2333 63.8332 32.133 63.9335 32.0093 63.9335H25.924C25.8003 63.9335 25.7 63.8332 25.7 63.7095V61.6002Z" fill="#959595"/>
<path d="M4.23334 100.8H9.97412M13.7024 100.8H101.824M106.364 100.8H108.767" stroke="#959595" stroke-width="1.4" stroke-linecap="round" stroke-linejoin="round"/>
</svg>
