<svg width="112" height="112" viewBox="0 0 112 112" fill="none" xmlns="http://www.w3.org/2000/svg">
<path d="M70.9333 18.6665L73.7333 21.4665M73.7333 18.6665L70.9333 21.4665" stroke="#959595" stroke-width="1.4" stroke-linecap="round" stroke-linejoin="round"/>
<circle cx="88.48" cy="25.9466" r="1.68" stroke="#959595" stroke-width="1.12" stroke-linecap="round" stroke-linejoin="round"/>
<circle cx="33.7867" cy="16.0531" r="1.12" fill="#959595" stroke="#959595" stroke-width="0.933333" stroke-linecap="round" stroke-linejoin="round"/>
<path d="M18.6667 29.8667H22.4" stroke="#959595" stroke-width="1.4" stroke-linecap="round" stroke-linejoin="round"/>
<path d="M20.5334 31.7334L20.5334 28.0001" stroke="#959595" stroke-width="1.4" stroke-linecap="round" stroke-linejoin="round"/>
<path d="M3.73334 100.8H9.47412M13.2024 100.8H101.324M105.864 100.8H108.267" stroke="#959595" stroke-width="1.4" stroke-linecap="round" stroke-linejoin="round"/>
<path d="M87.7333 67.2002V41.0669C87.7333 40.0359 86.8976 39.2002 85.8667 39.2002H26.1333C25.1024 39.2002 24.2667 40.0359 24.2667 41.0669V84.0002C24.2667 85.0311 25.1024 85.8669 26.1333 85.8669H72.0901" stroke="#959595" stroke-width="1.4" stroke-linecap="round" stroke-linejoin="round"/>
<circle cx="84.9333" cy="80.2664" r="9.33333" fill="white" stroke="#959595" stroke-width="1.4" stroke-linecap="round" stroke-linejoin="round"/>
<path d="M82.1333 77.4668L87.7333 83.0668" stroke="#959595" stroke-width="1.4" stroke-linecap="round" stroke-linejoin="round"/>
<path d="M87.7333 77.4668L82.1333 83.0668" stroke="#959595" stroke-width="1.4" stroke-linecap="round" stroke-linejoin="round"/>
<path d="M24.2667 41.0669C24.2667 40.0359 25.1024 39.2002 26.1333 39.2002H85.8667C86.8976 39.2002 87.7333 40.0359 87.7333 41.0669V48.5335H24.2667V41.0669Z" fill="white" stroke="#959595" stroke-width="1.4" stroke-linecap="round" stroke-linejoin="round"/>
<circle cx="29.8667" cy="43.8664" r="0.933333" fill="#959595"/>
<circle cx="35.4667" cy="43.8664" r="0.933333" fill="#959595"/>
<circle cx="41.0666" cy="43.8664" r="0.933333" fill="#959595"/>
<path d="M42.9883 58.7998L36.4 69.1882H47.6M42.9883 64.6433V73.7331" stroke="#959595" stroke-width="1.4" stroke-linecap="round" stroke-linejoin="round"/>
<path d="M70.0549 58.7998L63.4667 69.1882H74.6667M70.0549 64.6433V73.7331" stroke="#959595" stroke-width="1.4" stroke-linecap="round" stroke-linejoin="round"/>
<rect x="51.3333" y="58.7998" width="8.4" height="14.9333" rx="4.2" stroke="#959595" stroke-width="1.4" stroke-linecap="round" stroke-linejoin="round"/>
</svg>
